<svg xmlns="http://www.w3.org/2000/svg" width="200" height="200" viewBox="0 0 200 200">
  <title>Streamlined Appraisals</title>
  <defs>
    <linearGradient id="gradient1" x1="0%" y1="0%" x2="100%" y2="100%">
      <stop offset="0%" style="stop-color:#4CAF50;stop-opacity:1" />
      <stop offset="100%" style="stop-color:#2E7D32;stop-opacity:1" />
    </linearGradient>
  </defs>
  
  <!-- Background circle -->
  <circle cx="100" cy="100" r="90" fill="#f8f9fa" stroke="#e9ecef" stroke-width="2"/>
  
  <!-- Document background -->
  <rect x="60" y="40" width="80" height="120" rx="8" fill="white" stroke="#dee2e6" stroke-width="2"/>
  
  <!-- Document header -->
  <rect x="60" y="40" width="80" height="25" rx="8" fill="url(#gradient1)"/>
  
  <!-- Title lines -->
  <rect x="70" y="50" width="40" height="2" fill="white" opacity="0.9"/>
  <rect x="70" y="55" width="25" height="2" fill="white" opacity="0.7"/>
  
  <!-- Checklist items -->
  <!-- Item 1 -->
  <circle cx="75" cy="85" r="4" fill="#4CAF50"/>
  <path d="M73 85 L74.5 86.5 L77 83.5" stroke="white" stroke-width="1.5" fill="none"/>
  <rect x="85" y="83" width="35" height="2" fill="#6c757d"/>
  <rect x="85" y="87" width="25" height="2" fill="#adb5bd"/>
  
  <!-- Item 2 -->
  <circle cx="75" cy="105" r="4" fill="#4CAF50"/>
  <path d="M73 105 L74.5 106.5 L77 103.5" stroke="white" stroke-width="1.5" fill="none"/>
  <rect x="85" y="103" width="40" height="2" fill="#6c757d"/>
  <rect x="85" y="107" width="30" height="2" fill="#adb5bd"/>
  
  <!-- Item 3 -->
  <circle cx="75" cy="125" r="4" fill="#4CAF50"/>
  <path d="M73 125 L74.5 126.5 L77 123.5" stroke="white" stroke-width="1.5" fill="none"/>
  <rect x="85" y="123" width="32" height="2" fill="#6c757d"/>
  <rect x="85" y="127" width="28" height="2" fill="#adb5bd"/>
  
  <!-- Performance gauge -->
  <circle cx="100" cy="145" r="12" fill="none" stroke="#e9ecef" stroke-width="3"/>
  <path d="M 88 145 A 12 12 0 0 1 112 145" fill="none" stroke="url(#gradient1)" stroke-width="3" stroke-linecap="round"/>
  <circle cx="100" cy="145" r="2" fill="#4CAF50"/>
</svg>